<?xml version="1.0" encoding="UTF-8" standalone="no"?>
<svg
   width="100"
   height="100"
   viewBox="0 0 100 100"
   fill="none"
   version="1.1"
   id="svg2"
   sodipodi:docname="light_anki.svg"
   inkscape:version="1.4.4 (dcaf3e7d9e, 2026-05-05)"
   xmlns:inkscape="http://www.inkscape.org/namespaces/inkscape"
   xmlns:sodipodi="http://sodipodi.sourceforge.net/DTD/sodipodi-0.dtd"
   xmlns="http://www.w3.org/2000/svg"
   xmlns:svg="http://www.w3.org/2000/svg">
  <defs
     id="defs2" />
  <sodipodi:namedview
     id="namedview2"
     pagecolor="#ffffff"
     bordercolor="#000000"
     borderopacity="0.25"
     inkscape:showpageshadow="2"
     inkscape:pageopacity="0.0"
     inkscape:pagecheckerboard="0"
     inkscape:deskcolor="#d1d1d1"
     inkscape:zoom="7.53"
     inkscape:cx="49.933599"
     inkscape:cy="50"
     inkscape:window-width="1920"
     inkscape:window-height="1008"
     inkscape:window-x="0"
     inkscape:window-y="0"
     inkscape:window-maximized="1"
     inkscape:current-layer="g2" />
  <g
     id="g2"
     transform="translate(-5.4448871,0.79681275)">
    <path
       d="M 48.6637,11.6966 62.196,24.149 v 0 l 18.5039,-3.6962 q 0.2908,-0.0581 0.5851,-0.0958 0.2942,-0.0377 0.5903,-0.0548 0.2961,-0.0171 0.5927,-0.0135 0.2966,0.0036 0.5922,0.0279 0.2957,0.0243 0.5889,0.0691 0.2932,0.0448 0.5826,0.1099 0.2894,0.0652 0.5735,0.1503 0.2841,0.0852 0.5616,0.19 0.2775,0.1047 0.5471,0.2286 0.2695,0.1238 0.5297,0.2661 0.2603,0.1424 0.51,0.3025 0.2496,0.1601 0.4876,0.3373 0.2379,0.1771 0.4629,0.3704 0.2249,0.1933 0.4359,0.4018 0.211,0.2085 0.4069,0.4312 0.1959,0.2228 0.3758,0.4586 0.1799,0.2358 0.343,0.4836 0.163,0.2478 0.3084,0.5063 0.1454,0.2586 0.2724,0.5267 0.127,0.268 0.235,0.5443 0.108,0.2762 0.1964,0.5594 0.0885,0.2831 0.157,0.5717 0.0686,0.2886 0.1168,0.5812 0.0482,0.2927 0.076,0.588 0.0277,0.2953 0.0348,0.5919 0.007,0.2965 -0.0066,0.5928 -0.0136,0.2963 -0.0478,0.591 -0.0343,0.2946 -0.089,0.5861 -0.0547,0.2916 -0.1295,0.5786 -0.0749,0.287 -0.1696,0.5681 -0.0947,0.2811 -0.2088,0.5549 -0.1141,0.2738 -0.247,0.539 l -5.8954,11.7654 q -0.1191,0.2377 -0.2231,0.4823 -0.104,0.2446 -0.1925,0.4953 -0.0885,0.2506 -0.1612,0.5063 -0.0726,0.2556 -0.1292,0.5154 -0.0566,0.2597 -0.0968,0.5224 -0.0402,0.2628 -0.0639,0.5275 -0.0237,0.2648 -0.0309,0.5305 -0.0071,0.2657 0.0024,0.5313 0.0094,0.2656 0.0355,0.5302 0.0261,0.2645 0.0686,0.5269 0.0425,0.2624 0.1014,0.5216 0.0588,0.2592 0.1337,0.5142 0.075,0.255 0.1657,0.5049 0.0907,0.2498 0.1968,0.4935 0.1062,0.2437 0.2273,0.4803 0.1212,0.2366 0.2569,0.4651 l 6.7391,11.3492 q 0.1513,0.2548 0.2844,0.5196 0.1332,0.2647 0.2475,0.5381 0.1143,0.2734 0.2093,0.5541 0.0949,0.2808 0.17,0.5674 0.0752,0.2867 0.1301,0.5779 0.0549,0.2912 0.0893,0.5855 0.0345,0.2943 0.0483,0.5903 0.0138,0.2961 0.0069,0.5923 -0.0069,0.2963 -0.0345,0.5913 -0.0275,0.2951 -0.0757,0.5875 -0.0481,0.2924 -0.1165,0.5807 -0.0684,0.2884 -0.1568,0.5712 -0.0883,0.2829 -0.1962,0.5589 -0.108,0.2759 -0.2349,0.5437 -0.1269,0.2678 -0.2722,0.5261 -0.1454,0.2582 -0.3084,0.5057 -0.163,0.2475 -0.3428,0.483 -0.1799,0.2355 -0.3758,0.4578 -0.1959,0.2224 -0.4068,0.4305 -0.211,0.2082 -0.4359,0.4011 -0.225,0.1929 -0.4629,0.3696 -0.2378,0.1767 -0.4875,0.3364 -0.2496,0.1597 -0.5098,0.3015 -0.2602,0.1419 -0.5296,0.2652 -0.2695,0.1233 -0.5469,0.2275 -0.2774,0.1043 -0.5614,0.1889 -0.284,0.0846 -0.5732,0.1491 -0.2893,0.0646 -0.5823,0.1087 -0.293,0.0442 -0.5884,0.0679 -0.2954,0.0236 -0.5917,0.0265 -0.2963,0.003 -0.5921,-0.0148 -0.2958,-0.0178 -0.5897,-0.0561 L 68.4262,74.7256 q -0.5109,-0.0667 -1.0261,-0.0729 -0.5152,-0.0061 -1.0275,0.0484 -0.5124,0.0545 -1.0147,0.169 -0.5024,0.1144 -0.9878,0.2871 -0.4854,0.1728 -0.9471,0.4015 -0.4617,0.2286 -0.8933,0.51 -0.4315,0.2814 -0.827,0.6117 -0.3955,0.3302 -0.7493,0.7047 l -9.4921,10.045 q -0.2081,0.2203 -0.4309,0.4258 -0.2228,0.2054 -0.4592,0.3951 -0.2364,0.1897 -0.4852,0.3628 -0.2489,0.173 -0.509,0.3286 -0.2601,0.1555 -0.5303,0.2928 -0.2702,0.1373 -0.5492,0.2558 -0.279,0.1184 -0.5654,0.2175 -0.2865,0.099 -0.5791,0.1781 -0.2926,0.0791 -0.5899,0.138 -0.2973,0.0588 -0.598,0.0971 -0.3006,0.0383 -0.6032,0.0559 -0.3026,0.0176 -0.6056,0.0143 -0.3031,-0.0032 -0.6052,-0.0272 -0.3022,-0.0241 -0.6019,-0.0688 -0.2998,-0.0447 -0.5958,-0.1099 -0.296,-0.0652 -0.5868,-0.1505 -0.2909,-0.0854 -0.5751,-0.1905 -0.2843,-0.1051 -0.5607,-0.2295 -0.2764,-0.1244 -0.5436,-0.2674 -0.2672,-0.1431 -0.5239,-0.3042 -0.2568,-0.161 -0.5019,-0.3394 -0.2451,-0.1783 -0.4773,-0.373 -0.2323,-0.1947 -0.4507,-0.4049 -0.2183,-0.2102 -0.4217,-0.4349 -0.2034,-0.2247 -0.3909,-0.4628 -0.1876,-0.2381 -0.3583,-0.4885 -0.1707,-0.2505 -0.3238,-0.512 -0.1532,-0.2616 -0.288,-0.533 -0.1348,-0.2715 -0.2506,-0.5516 -0.1159,-0.28 -0.2123,-0.5674 -0.0963,-0.2874 -0.1727,-0.5807 -0.0764,-0.2933 -0.1325,-0.5911 L 33.9756,70.2244 Q 33.9258,69.9601 33.86,69.6993 33.7943,69.4385 33.7127,69.1822 33.6311,68.9259 33.5341,68.6751 33.4371,68.4242 33.325,68.1797 33.2128,67.9353 33.086,67.6981 32.9592,67.4609 32.8182,67.2319 32.6771,67.0029 32.5224,66.7829 32.3677,66.5629 32.1999,66.3527 32.032,66.1425 31.8517,65.943 31.6714,65.7434 31.4792,65.5552 31.287,65.3671 31.0838,65.1909 30.8805,65.0148 30.6669,64.8514 30.4533,64.688 30.2301,64.5379 30.0069,64.3878 29.775,64.2515 29.5431,64.1153 29.3033,63.9935 29.0635,63.8716 28.8168,63.7646 L 16.3208,58.3459 Q 16.0476,58.2274 15.7835,58.0901 15.5194,57.9527 15.2656,57.797 15.0118,57.6414 14.7696,57.4683 14.5274,57.2952 14.298,57.1054 14.0686,56.9157 13.8532,56.7103 13.6377,56.5048 13.4372,56.2848 13.2367,56.0647 13.0523,55.831 12.8678,55.5974 12.7002,55.3513 12.5327,55.1052 12.3828,54.848 12.233,54.5907 12.1017,54.3236 q -0.1314,-0.2672 -0.2436,-0.543 -0.1122,-0.2757 -0.2047,-0.5587 -0.0925,-0.2829 -0.1648,-0.5717 -0.0724,-0.2888 -0.1242,-0.582 -0.0519,-0.2931 -0.0829,-0.5892 -0.0311,-0.2961 -0.0413,-0.5936 -0.0101,-0.2975 7e-4,-0.595 0.0109,-0.2975 0.0426,-0.5935 0.0318,-0.296 0.0843,-0.5891 0.0525,-0.293 0.1255,-0.5816 0.0731,-0.2886 0.1662,-0.5714 0.0932,-0.2827 0.206,-0.5582 0.1129,-0.2755 0.2448,-0.5424 0.132,-0.2668 0.2824,-0.5237 0.1504,-0.2569 0.3186,-0.5026 0.1681,-0.2457 0.3531,-0.4789 0.1851,-0.2332 0.386,-0.4529 0.201,-0.2196 0.417,-0.4245 0.2159,-0.2049 0.4458,-0.3941 0.2298,-0.1892 0.4724,-0.3618 0.2426,-0.1726 0.4967,-0.3276 0.2542,-0.155 0.5186,-0.2918 l 12.1867,-6.303 q 0.2297,-0.1188 0.4518,-0.2515 0.222,-0.1326 0.4355,-0.2786 0.2135,-0.146 0.4177,-0.3048 0.2042,-0.1588 0.3983,-0.3298 0.1941,-0.171 0.3773,-0.3536 0.1833,-0.1825 0.355,-0.376 0.1717,-0.1934 0.3313,-0.397 0.1596,-0.2035 0.3064,-0.4165 0.1468,-0.213 0.2803,-0.4345 0.1335,-0.2215 0.2532,-0.4508 0.1197,-0.2293 0.2252,-0.4655 0.1054,-0.2362 0.1962,-0.4784 0.0908,-0.2422 0.1666,-0.4896 0.0758,-0.2473 0.1363,-0.4987 0.0605,-0.2515 0.1056,-0.5062 0.045,-0.2548 0.0743,-0.5117 l 1.4945,-13.0879 q 0.0343,-0.3002 0.0891,-0.5973 0.0548,-0.2971 0.1299,-0.5897 0.0751,-0.2926 0.1702,-0.5794 0.095,-0.2868 0.2095,-0.5663 0.1146,-0.2796 0.248,-0.5506 0.1335,-0.271 0.2853,-0.5322 0.1517,-0.2613 0.3211,-0.5114 0.1694,-0.2502 0.3556,-0.4881 0.1861,-0.2379 0.3882,-0.4625 0.2021,-0.2246 0.4191,-0.4347 0.217,-0.2102 0.448,-0.4049 0.231,-0.1948 0.4748,-0.3732 0.2438,-0.1784 0.4993,-0.3396 0.2554,-0.1613 0.5214,-0.3046 0.266,-0.1433 0.5412,-0.2679 0.2751,-0.1247 0.5582,-0.23018 0.2831,-0.10546 0.5728,-0.19123 0.2897,-0.08576 0.5846,-0.15141 0.2949,-0.06565 0.5936,-0.11088 0.2987,-0.04523 0.5998,-0.06983 0.3011,-0.02459 0.6032,-0.02843 0.302,-0.00384 0.6037,0.01309 0.3016,0.01692 0.6014,0.05454 0.2997,0.03762 0.5962,0.09575 0.2964,0.05813 0.5882,0.1365 0.2918,0.07836 0.5775,0.1766 0.2857,0.09823 0.5639,0.21588 0.2783,0.1176 0.5478,0.2541 0.2695,0.1365 0.529,0.2912 0.2595,0.1546 0.5078,0.3268 0.2482,0.1721 0.4841,0.361 0.2358,0.1888 0.4581,0.3933 z"
       fill="#334033"
       fill-rule="evenodd"
       id="path1"
       style="stroke:#334033;stroke-opacity:1;stroke-width:10;stroke-dasharray:none;fill:#334033;fill-opacity:0" />
  </g>
</svg>
