<?xml version="1.0" encoding="utf-8"?>
<svg width="40" height="40" viewBox="0 0 40 40" fill="none" xmlns="http://www.w3.org/2000/svg">
  <g>
    <path d="M0 30C0 30 0 3.33333 0 3.33333C0 2.41667 0.326388 1.63195 0.979167 0.979167C1.63194 0.326388 2.41667 0 3.33333 0C3.33333 0 20 0 20 0C20.9167 0 21.7014 0.326388 22.3542 0.979167C23.0069 1.63195 23.3333 2.41667 23.3333 3.33333C23.3333 3.33333 23.3333 30 23.3333 30L11.6667 25C11.6667 25 0 30 0 30ZM3.33333 24.9167L11.6667 21.3333L20 24.9167L20 3.33333L3.33333 3.33333L3.33333 24.9167L3.33333 24.9167ZM3.33333 3.33333L20 3.33333L3.33333 3.33333L3.33333 3.33333Z" fill="#334033" transform="translate(8.333 5)" />
  </g>
</svg>