<?xml version="1.0" encoding="utf-8"?>
<svg width="40" height="40" viewBox="0 0 40 40" fill="none" xmlns="http://www.w3.org/2000/svg">
  <g>
    <path d="M15 25L18.3333 25L18.3333 18.3333L25 18.3333L25 15L18.3333 15L18.3333 8.33333L15 8.33333L15 15L8.33333 15L8.33333 18.3333L15 18.3333L15 25L15 25ZM16.6667 33.3333C14.3611 33.3333 12.1944 32.8958 10.1667 32.0208C8.13889 31.1458 6.375 29.9583 4.875 28.4583C3.375 26.9583 2.1875 25.1944 1.3125 23.1667C0.4375 21.1389 0 18.9722 0 16.6667C0 14.3611 0.4375 12.1944 1.3125 10.1667C2.1875 8.13889 3.375 6.375 4.875 4.875C6.375 3.375 8.13889 2.1875 10.1667 1.3125C12.1944 0.4375 14.3611 0 16.6667 0C18.9722 0 21.1389 0.4375 23.1667 1.3125C25.1944 2.1875 26.9583 3.375 28.4583 4.875C29.9583 6.375 31.1458 8.13889 32.0208 10.1667C32.8958 12.1944 33.3333 14.3611 33.3333 16.6667C33.3333 18.9722 32.8958 21.1389 32.0208 23.1667C31.1458 25.1944 29.9583 26.9583 28.4583 28.4583C26.9583 29.9583 25.1944 31.1458 23.1667 32.0208C21.1389 32.8958 18.9722 33.3333 16.6667 33.3333C16.6667 33.3333 16.6667 33.3333 16.6667 33.3333ZM16.6667 30C20.3889 30 23.5417 28.7083 26.125 26.125C28.7083 23.5417 30 20.3889 30 16.6667C30 12.9444 28.7083 9.79167 26.125 7.20833C23.5417 4.625 20.3889 3.33333 16.6667 3.33333C12.9444 3.33333 9.79167 4.625 7.20833 7.20833C4.625 9.79167 3.33333 12.9444 3.33333 16.6667C3.33333 20.3889 4.625 23.5417 7.20833 26.125C9.79167 28.7083 12.9444 30 16.6667 30C16.6667 30 16.6667 30 16.6667 30Z" fill="#334033" transform="translate(3.333 3.333)" />
  </g>
</svg>