<?xml version="1.0" encoding="utf-8"?>
<svg width="40" height="40" viewBox="0 0 40 40" fill="none" xmlns="http://www.w3.org/2000/svg">
  <g>
    <path d="M12.1667 33.3333C12.1667 33.3333 11.5 28 11.5 28C11.1389 27.8611 10.7986 27.6944 10.4792 27.5C10.1597 27.3056 9.84722 27.0972 9.54167 26.875C9.54167 26.875 4.58333 28.9583 4.58333 28.9583L0 21.0417C0 21.0417 4.29167 17.7917 4.29167 17.7917C4.26389 17.5972 4.25 17.4097 4.25 17.2292C4.25 17.2292 4.25 16.1042 4.25 16.1042C4.25 15.9236 4.26389 15.7361 4.29167 15.5417C4.29167 15.5417 0 12.2917 0 12.2917L4.58333 4.375C4.58333 4.375 9.54167 6.45833 9.54167 6.45833C9.84722 6.23611 10.1667 6.02778 10.5 5.83333C10.8333 5.63889 11.1667 5.47222 11.5 5.33333C11.5 5.33333 12.1667 0 12.1667 0L21.3333 0C21.3333 0 22 5.33333 22 5.33333C22.3611 5.47222 22.7014 5.63889 23.0208 5.83333C23.3403 6.02778 23.6528 6.23611 23.9583 6.45833C23.9583 6.45833 28.9167 4.375 28.9167 4.375L33.5 12.2917C33.5 12.2917 29.2083 15.5417 29.2083 15.5417C29.2361 15.7361 29.25 15.9236 29.25 16.1042C29.25 16.1042 29.25 17.2292 29.25 17.2292C29.25 17.4097 29.2222 17.5972 29.1667 17.7917C29.1667 17.7917 33.4583 21.0417 33.4583 21.0417L28.875 28.9583C28.875 28.9583 23.9583 26.875 23.9583 26.875C23.6528 27.0972 23.3333 27.3056 23 27.5C22.6667 27.6944 22.3333 27.8611 22 28C22 28 21.3333 33.3333 21.3333 33.3333L12.1667 33.3333L12.1667 33.3333ZM15.0833 30L18.375 30C18.375 30 18.9583 25.5833 18.9583 25.5833C19.8194 25.3611 20.6181 25.0347 21.3542 24.6042C22.0903 24.1736 22.7639 23.6528 23.375 23.0417C23.375 23.0417 27.5 24.75 27.5 24.75L29.125 21.9167C29.125 21.9167 25.5417 19.2083 25.5417 19.2083C25.6806 18.8194 25.7778 18.4097 25.8333 17.9792C25.8889 17.5486 25.9167 17.1111 25.9167 16.6667C25.9167 16.2222 25.8889 15.7847 25.8333 15.3542C25.7778 14.9236 25.6806 14.5139 25.5417 14.125C25.5417 14.125 29.125 11.4167 29.125 11.4167L27.5 8.58333C27.5 8.58333 23.375 10.3333 23.375 10.3333C22.7639 9.69445 22.0903 9.15972 21.3542 8.72917C20.6181 8.29861 19.8194 7.97222 18.9583 7.75C18.9583 7.75 18.4167 3.33333 18.4167 3.33333L15.125 3.33333C15.125 3.33333 14.5417 7.75 14.5417 7.75C13.6806 7.97222 12.8819 8.29861 12.1458 8.72917C11.4097 9.15972 10.7361 9.68055 10.125 10.2917C10.125 10.2917 6 8.58333 6 8.58333L4.375 11.4167C4.375 11.4167 7.95833 14.0833 7.95833 14.0833C7.81944 14.5 7.72222 14.9167 7.66667 15.3333C7.61111 15.75 7.58333 16.1944 7.58333 16.6667C7.58333 17.1111 7.61111 17.5417 7.66667 17.9583C7.72222 18.375 7.81944 18.7917 7.95833 19.2083C7.95833 19.2083 4.375 21.9167 4.375 21.9167L6 24.75C6 24.75 10.125 23 10.125 23C10.7361 23.6389 11.4097 24.1736 12.1458 24.6042C12.8819 25.0347 13.6806 25.3611 14.5417 25.5833C14.5417 25.5833 15.0833 30 15.0833 30L15.0833 30ZM16.8333 22.5C18.4444 22.5 19.8194 21.9306 20.9583 20.7917C22.0972 19.6528 22.6667 18.2778 22.6667 16.6667C22.6667 15.0556 22.0972 13.6806 20.9583 12.5417C19.8194 11.4028 18.4444 10.8333 16.8333 10.8333C15.1944 10.8333 13.8125 11.4028 12.6875 12.5417C11.5625 13.6806 11 15.0556 11 16.6667C11 18.2778 11.5625 19.6528 12.6875 20.7917C13.8125 21.9306 15.1944 22.5 16.8333 22.5C16.8333 22.5 16.8333 22.5 16.8333 22.5Z" fill="#334033" transform="translate(3.25 3.333)" />
  </g>
</svg>