<?xml version="1.0" encoding="utf-8"?>
<svg width="40" height="40" viewBox="0 0 40 40" fill="none" xmlns="http://www.w3.org/2000/svg">
  <g>
    <path d="M16.6667 10C16.6667 10 16.6667 0 16.6667 0L30 0L30 10C30 10 16.6667 10 16.6667 10ZM0 16.6667C0 16.6667 0 0 0 0L13.3333 0L13.3333 16.6667C13.3333 16.6667 0 16.6667 0 16.6667ZM16.6667 30L16.6667 13.3333L30 13.3333L30 30L16.6667 30L16.6667 30ZM0 30L0 20L13.3333 20L13.3333 30L0 30L0 30ZM3.33333 13.3333L10 13.3333L10 3.33333L3.33333 3.33333L3.33333 13.3333L3.33333 13.3333ZM20 26.6667L26.6667 26.6667L26.6667 16.6667L20 16.6667L20 26.6667L20 26.6667ZM20 6.66667L26.6667 6.66667L26.6667 3.33333L20 3.33333L20 6.66667L20 6.66667ZM3.33333 26.6667L10 26.6667L10 23.3333L3.33333 23.3333L3.33333 26.6667L3.33333 26.6667Z" fill="#334033" transform="translate(5 5)" />
  </g>
</svg>