<?xml version="1.0" encoding="utf-8"?>
<svg width="40" height="40" viewBox="0 0 40 40" fill="none" xmlns="http://www.w3.org/2000/svg">
  <g>
    <path d="M18.0625 26.0625C18.4653 25.6597 18.6667 25.1667 18.6667 24.5833C18.6667 24 18.4653 23.5069 18.0625 23.1042C17.6597 22.7014 17.1667 22.5 16.5833 22.5C16 22.5 15.5069 22.7014 15.1042 23.1042C14.7014 23.5069 14.5 24 14.5 24.5833C14.5 25.1667 14.7014 25.6597 15.1042 26.0625C15.5069 26.4653 16 26.6667 16.5833 26.6667C17.1667 26.6667 17.6597 26.4653 18.0625 26.0625C18.0625 26.0625 18.0625 26.0625 18.0625 26.0625ZM15.0833 20.25C15.0833 20.25 18.1667 20.25 18.1667 20.25C18.1667 19.3333 18.2708 18.6111 18.4792 18.0833C18.6875 17.5556 19.2778 16.8333 20.25 15.9167C20.9722 15.1944 21.5417 14.5069 21.9583 13.8542C22.375 13.2014 22.5833 12.4167 22.5833 11.5C22.5833 9.94444 22.0139 8.75 20.875 7.91667C19.7361 7.08333 18.3889 6.66667 16.8333 6.66667C15.25 6.66667 13.9653 7.08333 12.9792 7.91667C11.9931 8.75 11.3056 9.75 10.9167 10.9167C10.9167 10.9167 13.6667 12 13.6667 12C13.8056 11.5 14.1181 10.9583 14.6042 10.375C15.0903 9.79167 15.8333 9.5 16.8333 9.5C17.7222 9.5 18.3889 9.74305 18.8333 10.2292C19.2778 10.7153 19.5 11.25 19.5 11.8333C19.5 12.3889 19.3333 12.9097 19 13.3958C18.6667 13.8819 18.25 14.3333 17.75 14.75C16.5278 15.8333 15.7778 16.6528 15.5 17.2083C15.2222 17.7639 15.0833 18.7778 15.0833 20.25C15.0833 20.25 15.0833 20.25 15.0833 20.25ZM16.6667 33.3333C14.3611 33.3333 12.1944 32.8958 10.1667 32.0208C8.13889 31.1458 6.375 29.9583 4.875 28.4583C3.375 26.9583 2.1875 25.1944 1.3125 23.1667C0.4375 21.1389 0 18.9722 0 16.6667C0 14.3611 0.4375 12.1944 1.3125 10.1667C2.1875 8.13889 3.375 6.375 4.875 4.875C6.375 3.375 8.13889 2.1875 10.1667 1.3125C12.1944 0.4375 14.3611 0 16.6667 0C18.9722 0 21.1389 0.4375 23.1667 1.3125C25.1944 2.1875 26.9583 3.375 28.4583 4.875C29.9583 6.375 31.1458 8.13889 32.0208 10.1667C32.8958 12.1944 33.3333 14.3611 33.3333 16.6667C33.3333 18.9722 32.8958 21.1389 32.0208 23.1667C31.1458 25.1944 29.9583 26.9583 28.4583 28.4583C26.9583 29.9583 25.1944 31.1458 23.1667 32.0208C21.1389 32.8958 18.9722 33.3333 16.6667 33.3333C16.6667 33.3333 16.6667 33.3333 16.6667 33.3333ZM16.6667 30C20.3889 30 23.5417 28.7083 26.125 26.125C28.7083 23.5417 30 20.3889 30 16.6667C30 12.9444 28.7083 9.79167 26.125 7.20833C23.5417 4.625 20.3889 3.33333 16.6667 3.33333C12.9444 3.33333 9.79167 4.625 7.20833 7.20833C4.625 9.79167 3.33333 12.9444 3.33333 16.6667C3.33333 20.3889 4.625 23.5417 7.20833 26.125C9.79167 28.7083 12.9444 30 16.6667 30C16.6667 30 16.6667 30 16.6667 30Z" fill="#334033" transform="translate(3.333 3.333)" />
  </g>
</svg>