<?xml version="1.0" encoding="utf-8"?>
<svg width="40" height="40" viewBox="0 0 40 40" fill="none" xmlns="http://www.w3.org/2000/svg">
  <g>
    <g transform="translate(3.333 3.333)">
      <path d="M13.3333 20L20 20L20 16.6667L13.3333 16.6667L13.3333 20L13.3333 20ZM13.3333 15L26.6667 15L26.6667 11.6667L13.3333 11.6667L13.3333 15L13.3333 15ZM13.3333 10L26.6667 10L26.6667 6.66667L13.3333 6.66667L13.3333 10L13.3333 10ZM10 26.6667C9.08333 26.6667 8.29861 26.3403 7.64583 25.6875C6.99306 25.0347 6.66667 24.25 6.66667 23.3333C6.66667 23.3333 6.66667 3.33333 6.66667 3.33333C6.66667 2.41667 6.99306 1.63195 7.64583 0.979167C8.29861 0.326388 9.08333 0 10 0C10 0 30 0 30 0C30.9167 0 31.7014 0.326388 32.3542 0.979167C33.0069 1.63195 33.3333 2.41667 33.3333 3.33333C33.3333 3.33333 33.3333 23.3333 33.3333 23.3333C33.3333 24.25 33.0069 25.0347 32.3542 25.6875C31.7014 26.3403 30.9167 26.6667 30 26.6667C30 26.6667 10 26.6667 10 26.6667C10 26.6667 10 26.6667 10 26.6667ZM10 23.3333L30 23.3333L30 3.33333L10 3.33333L10 23.3333L10 23.3333ZM3.33333 33.3333C2.41667 33.3333 1.63194 33.0069 0.979167 32.3542C0.326389 31.7014 0 30.9167 0 30C0 30 0 6.66667 0 6.66667L3.33333 6.66667L3.33333 30L26.6667 30L26.6667 33.3333C26.6667 33.3333 3.33333 33.3333 3.33333 33.3333ZM10 3.33333L10 23.3333L10 3.33333L10 3.33333Z" fill="#334033" />
    </g>
  </g>
</svg>