<?xml version="1.0" encoding="utf-8"?>
<svg width="40" height="40" viewBox="0 0 40 40" fill="none" xmlns="http://www.w3.org/2000/svg">
  <g opacity="0.6">
    <path d="M3.33333 26.6667C2.41667 26.6667 1.63194 26.3403 0.979166 25.6875C0.326389 25.0347 0 24.25 0 23.3333C0 22.4167 0.326389 21.6319 0.979166 20.9792C1.63194 20.3264 2.41667 20 3.33333 20C4.25 20 5.03472 20.3264 5.6875 20.9792C6.34028 21.6319 6.66667 22.4167 6.66667 23.3333C6.66667 24.25 6.34028 25.0347 5.6875 25.6875C5.03472 26.3403 4.25 26.6667 3.33333 26.6667ZM3.33333 16.6667C2.41667 16.6667 1.63194 16.3403 0.979166 15.6875C0.326389 15.0347 0 14.25 0 13.3333C0 12.4167 0.326389 11.6319 0.979166 10.9792C1.63194 10.3264 2.41667 10 3.33333 10C4.25 10 5.03472 10.3264 5.6875 10.9792C6.34028 11.6319 6.66667 12.4167 6.66667 13.3333C6.66667 14.25 6.34028 15.0347 5.6875 15.6875C5.03472 16.3403 4.25 16.6667 3.33333 16.6667C3.33333 16.6667 3.33333 16.6667 3.33333 16.6667ZM3.33333 6.66667C2.41667 6.66667 1.63194 6.34028 0.979166 5.6875C0.326389 5.03472 0 4.25 0 3.33333C0 2.41667 0.326389 1.63195 0.979166 0.979167C1.63194 0.326388 2.41667 0 3.33333 0C4.25 0 5.03472 0.326388 5.6875 0.979167C6.34028 1.63195 6.66667 2.41667 6.66667 3.33333C6.66667 4.25 6.34028 5.03472 5.6875 5.6875C5.03472 6.34028 4.25 6.66667 3.33333 6.66667C3.33333 6.66667 3.33333 6.66667 3.33333 6.66667Z" fill="#334033" transform="translate(16.667 6.667)" />
  </g>
</svg>