<?xml version="1.0" encoding="utf-8"?>
<svg width="40" height="40" viewBox="0 0 40 40" fill="none" xmlns="http://www.w3.org/2000/svg">
  <g>
    <path d="M13.3333 29.0417L13.3333 17.625L3.33333 11.8333L3.33333 23.25L13.3333 29.0417L13.3333 29.0417ZM16.6667 29.0417L26.6667 23.25L26.6667 11.8333L16.6667 17.625L16.6667 29.0417L16.6667 29.0417ZM15 14.75L24.875 9.04167L15 3.33333L5.125 9.04167L15 14.75L15 14.75ZM1.66667 26.1667C1.13889 25.8611 0.729167 25.4583 0.4375 24.9583C0.145833 24.4583 0 23.9028 0 23.2917C0 23.2917 0 10.0417 0 10.0417C0 9.43055 0.145833 8.875 0.4375 8.375C0.729167 7.875 1.13889 7.47222 1.66667 7.16667C1.66667 7.16667 13.3333 0.458333 13.3333 0.458333C13.8611 0.152779 14.4167 0 15 0C15.5833 0 16.1389 0.152779 16.6667 0.458333C16.6667 0.458333 28.3333 7.16667 28.3333 7.16667C28.8611 7.47222 29.2708 7.875 29.5625 8.375C29.8542 8.875 30 9.43055 30 10.0417C30 10.0417 30 23.2917 30 23.2917C30 23.9028 29.8542 24.4583 29.5625 24.9583C29.2708 25.4583 28.8611 25.8611 28.3333 26.1667C28.3333 26.1667 16.6667 32.875 16.6667 32.875C16.1389 33.1806 15.5833 33.3333 15 33.3333C14.4167 33.3333 13.8611 33.1806 13.3333 32.875C13.3333 32.875 1.66667 26.1667 1.66667 26.1667Z" fill="#334033" transform="translate(5 3.333)" />
  </g>
</svg>