<?xml version="1.0" encoding="utf-8"?>
<svg width="40" height="40" viewBox="0 0 40 40" fill="none" xmlns="http://www.w3.org/2000/svg">
  <g>
    <path d="M23.3333 10C22.8611 10 22.4653 9.84028 22.1458 9.52083C21.8264 9.20139 21.6667 8.80556 21.6667 8.33333C21.6667 8.33333 21.6667 1.66667 21.6667 1.66667C21.6667 1.19444 21.8264 0.798612 22.1458 0.479167C22.4653 0.159721 22.8611 0 23.3333 0C23.3333 0 28.3333 0 28.3333 0C28.8056 0 29.2014 0.159721 29.5208 0.479167C29.8403 0.798612 30 1.19444 30 1.66667C30 1.66667 30 3.33333 30 3.33333L27.5 3.33333L27.5 2.5L24.1667 2.5L24.1667 7.5L27.5 7.5L27.5 6.66667L30 6.66667C30 6.66667 30 8.33333 30 8.33333C30 8.80556 29.8403 9.20139 29.5208 9.52083C29.2014 9.84028 28.8056 10 28.3333 10C28.3333 10 23.3333 10 23.3333 10ZM10.8333 10L10.8333 0C10.8333 0 17.5 0 17.5 0C17.9722 0 18.3681 0.159721 18.6875 0.479167C19.0069 0.798612 19.1667 1.19444 19.1667 1.66667C19.1667 1.66667 19.1667 3.33333 19.1667 3.33333C19.1667 3.80556 19.0069 4.20139 18.6875 4.52083C18.3681 4.84028 17.9722 5 17.5 5C17.9722 5 18.3681 5.15972 18.6875 5.47917C19.0069 5.79861 19.1667 6.19444 19.1667 6.66667C19.1667 6.66667 19.1667 8.33333 19.1667 8.33333C19.1667 8.80556 19.0069 9.20139 18.6875 9.52083C18.3681 9.84028 17.9722 10 17.5 10C17.5 10 10.8333 10 10.8333 10L10.8333 10ZM13.3333 3.75L16.6667 3.75L16.6667 2.5L13.3333 2.5L13.3333 3.75L13.3333 3.75ZM13.3333 7.5L16.6667 7.5L16.6667 6.25L13.3333 6.25L13.3333 7.5L13.3333 7.5ZM0 10C0 10 0 1.66667 0 1.66667C0 1.19444 0.159722 0.798612 0.479167 0.479167C0.798611 0.159721 1.19444 0 1.66667 0C1.66667 0 6.66667 0 6.66667 0C7.13889 0 7.53472 0.159721 7.85417 0.479167C8.17361 0.798612 8.33333 1.19444 8.33333 1.66667C8.33333 1.66667 8.33333 10 8.33333 10L5.83333 10L5.83333 7.5L2.5 7.5L2.5 10L0 10L0 10ZM2.5 5L5.83333 5L5.83333 2.5L2.5 2.5L2.5 5L2.5 5Z" fill="#334033" transform="translate(5 15)" />
  </g>
</svg>